<svg xmlns="http://www.w3.org/2000/svg" xmlns:xlink="http://www.w3.org/1999/xlink" viewBox="0 0 471 471"><defs><style>.cls-1{fill:#fff;stroke:#fff;}.cls-1,.cls-2{fill-opacity:0.3;}.cls-2{fill-rule:evenodd;fill:url(#linear-gradient);}.cls-3{fill:none;stroke-opacity:0.5;stroke:url(#linear-gradient-2);}</style><linearGradient id="linear-gradient" x1="294.22" y1="6094.83" x2="294.22" y2="5985.56" gradientTransform="matrix(1, 0, 0, -1, -50, 6276.21)" gradientUnits="userSpaceOnUse"><stop offset="0.15" stop-color="#fff"/><stop offset="0.43" stop-color="#fff" stop-opacity="0.5"/><stop offset="1" stop-color="#1f0e82" stop-opacity="0"/></linearGradient><linearGradient id="linear-gradient-2" x1="294.22" y1="6094.83" x2="294.22" y2="5985.56" gradientTransform="matrix(1, 0, 0, -1, -50, 6276.21)" gradientUnits="userSpaceOnUse"><stop offset="0" stop-color="#fff" stop-opacity="0"/><stop offset="1" stop-color="#fff"/></linearGradient></defs><title>Asset 4vibeback</title><g id="Layer_2" data-name="Layer 2"><g id="Layer_1-2" data-name="Layer 1"><path class="cls-1" d="M390.47,189.16C387.18,86.14,303.71,3,200.34.5a4.75,4.75,0,0,0-4.85,4.7l-.16,69.2a6.25,6.25,0,0,1-6.11,6.26C86.17,83.79,3,167.4.5,270.73a4.75,4.75,0,0,0,4.7,4.85l69.07.16a6.25,6.25,0,0,1,6.26,6.1c3.29,103,86.92,186.15,190.13,188.66a4.76,4.76,0,0,0,4.86-4.7l.15-69.2a6.25,6.25,0,0,1,6.11-6.26C384.83,387.05,468,303.45,470.5,200.27a4.75,4.75,0,0,0-4.7-4.85l-69.07-.16A6.25,6.25,0,0,1,390.47,189.16ZM268.78,389.87C210.21,386.43,163.22,338.83,161,280a4.79,4.79,0,0,0-4.7-4.54l-68.91-.15a6.26,6.26,0,0,1-6.26-6.58C84.6,210.14,132.21,163.17,191.1,161a4.79,4.79,0,0,0,4.54-4.7l.16-69A6.26,6.26,0,0,1,202.38,81C261,84.42,307.93,132,310.13,190.88a4.78,4.78,0,0,0,4.7,4.54l68.91.16a6.25,6.25,0,0,1,6.26,6.57A114.61,114.61,0,0,1,275.67,310l-.15,73.59A6.49,6.49,0,0,1,268.78,389.87Z"/><path class="cls-2" d="M193.44,193.85a12.46,12.46,0,0,1,18.46-10.92l76.65,42.17a12.45,12.45,0,0,1,0,21.82L211.9,289.09a12.46,12.46,0,0,1-18.46-10.92Z"/><path class="cls-3" d="M193.94,193.85a12,12,0,0,1,17.71-10.48l76.66,42.17a12,12,0,0,1,0,21l-76.66,42.16a12,12,0,0,1-17.71-10.48Z"/></g></g></svg>